<?xml version="1.0" encoding="UTF-8"?>
<svg version="1.1" xmlns="http://www.w3.org/2000/svg" width="512" height="512">
<path d="M0 0 C1.97194839 -0.01073296 1.97194839 -0.01073296 3.98373413 -0.02168274 C5.43411231 -0.02452276 6.88449075 -0.02723452 8.33486938 -0.02983093 C9.86790113 -0.03610019 11.40093136 -0.0427474 12.93395996 -0.04974365 C17.9642329 -0.07074281 22.99450597 -0.08114661 28.02481079 -0.09111023 C29.76202027 -0.09516024 31.49922959 -0.09927723 33.23643875 -0.10346031 C41.4051361 -0.122508 49.57382448 -0.13673627 57.74253976 -0.14507228 C67.1412105 -0.15482387 76.53964443 -0.18109061 85.93823183 -0.22157317 C93.22088667 -0.25185379 100.50347412 -0.26655267 107.78619063 -0.26985329 C112.12666512 -0.27219144 116.46688655 -0.28098834 120.80729294 -0.30631447 C124.89991611 -0.32980836 128.99212345 -0.33374412 133.08479691 -0.32355309 C134.57496789 -0.32306264 136.06516085 -0.32923541 137.55526733 -0.34310913 C158.86156216 -0.53014442 176.32200305 6.5271968 191.80215454 21.35029602 C198.33774393 28.16807839 202.87653841 35.99193992 207.50137329 44.14717102 C208.68803251 46.21666377 209.87560567 48.28563262 211.06387329 50.35420227 C216.33334419 59.54317391 221.58335728 68.74312255 226.78901672 77.96841431 C228.22074828 80.50405879 229.65659324 83.03736172 231.09289551 85.57041931 C231.77232875 86.77136997 232.44973816 87.97346827 233.12493896 89.17680359 C240.55556024 103.79116162 240.55556024 103.79116162 253.50967407 112.75654602 C255.85208856 113.30199028 258.19390959 113.73804387 260.56387329 114.14717102 C261.43149292 114.31031799 262.29911255 114.47346497 263.19302368 114.64155579 C266.88194322 115.33196697 270.57677535 115.9857979 274.27383423 116.63105774 C297.25084436 120.64816015 317.33854314 127.87640361 331.77481079 147.44404602 C333.95729186 150.86096208 335.89200114 154.35814986 337.75137329 157.95967102 C338.08088989 158.58688049 338.41040649 159.21408997 338.74990845 159.86030579 C344.91443641 172.33283283 345.00328435 184.89848003 344.94741821 198.52876282 C344.93888246 201.70625603 344.96778676 204.88196265 344.99942017 208.0592804 C345.00103212 210.11071216 345.00045477 212.16214705 344.99746704 214.21357727 C345.00870102 215.1472261 345.019935 216.08087494 345.0315094 217.04281616 C344.91683257 228.06207158 341.10306998 237.18420558 333.50137329 245.14717102 C324.92816629 253.33142345 316.04271639 256.4733311 304.32559204 256.40498352 C303.5060202 256.4006279 302.68644836 256.39627228 301.84204102 256.39178467 C298.42157954 256.35671139 295.00391551 256.29937731 291.58511353 256.18525696 C281.65471333 255.45956507 281.65471333 255.45956507 273.07681274 259.32148743 C271.537484 261.89397451 270.4967052 264.32780952 269.50137329 267.14717102 C261.70103881 278.29050599 248.52858425 285.13664728 235.50137329 288.14717102 C231.86438581 288.56181345 228.28442995 288.62511282 224.62637329 288.58467102 C223.17847412 288.57331116 223.17847412 288.57331116 221.70132446 288.5617218 C214.37142439 288.392594 208.1495691 287.38142844 201.50137329 284.14717102 C200.53973267 283.68826477 199.57809204 283.22935852 198.58731079 282.75654602 C187.15506427 276.9017567 179.16942955 268.80531459 173.50137329 257.14717102 C151.44001064 256.91358588 129.37885181 256.73723613 107.31650352 256.6290493 C97.07253056 256.57748108 86.82932581 256.50717595 76.58584595 256.39277649 C67.65772768 256.29311454 58.73016569 256.22859187 49.80150664 256.20628607 C45.0733241 256.19324608 40.34673297 256.16260013 35.61906052 256.08987045 C31.16820317 256.02195442 26.71959107 256.00106018 22.26826477 256.01609421 C20.6355277 256.01334447 19.0027151 255.99346695 17.37042618 255.95511627 C12.61196331 255.84880632 8.1247901 255.85661592 3.50137329 257.14717102 C0.43243723 260.12916921 -0.96618548 263.20534189 -2.49862671 267.14717102 C-10.29896119 278.29050599 -23.47141575 285.13664728 -36.49862671 288.14717102 C-40.13561419 288.56181345 -43.71557005 288.62511282 -47.37362671 288.58467102 C-48.82152588 288.57331116 -48.82152588 288.57331116 -50.29867554 288.5617218 C-57.62857561 288.392594 -63.8504309 287.38142844 -70.49862671 284.14717102 C-71.46026733 283.68826477 -72.42190796 283.22935852 -73.41268921 282.75654602 C-84.84493573 276.9017567 -92.83057045 268.80531459 -98.49862671 257.14717102 C-100.13891846 257.13315247 -100.13891846 257.13315247 -101.81234741 257.11885071 C-105.91853704 257.07859758 -110.02400489 257.01274598 -114.12973022 256.93965149 C-115.89753865 256.91164469 -117.66546757 256.89033057 -119.43344116 256.87617493 C-133.8884706 256.75357078 -145.55668398 255.59269291 -156.49862671 245.14717102 C-166.78772178 234.36908925 -168.11582754 222.74360178 -168.02987671 208.49092102 C-168.03257868 206.89631413 -168.03646693 205.30170886 -168.04147339 203.70710754 C-168.04733538 200.38211722 -168.03891329 197.0575598 -168.02011108 193.73262024 C-167.99732305 189.4996417 -168.01046407 185.26767807 -168.03440094 181.03473663 C-168.04894907 177.74700969 -168.04421203 174.459518 -168.03388977 171.17178345 C-168.03124728 169.61228308 -168.03440357 168.05276039 -168.04380798 166.49328613 C-168.10720906 153.02972619 -166.10628666 142.21143263 -156.49862671 132.14717102 C-146.20263978 122.31829882 -132.69852895 120.03059545 -119.26229858 116.79170227 C-108.69849125 114.15819813 -102.25155117 112.34366057 -96.18270874 102.95283508 C-93.3281355 98.1971442 -90.59541837 93.38962106 -87.93612671 88.52217102 C-82.59630324 78.86717151 -77.14158224 69.29186903 -71.55258179 59.77900696 C-68.82025547 55.12807466 -66.1045265 50.47124473 -63.45565796 45.77217102 C-51.67900892 24.92026919 -37.64607312 9.11510521 -14.11972046 1.83857727 C-9.32209843 0.57303465 -4.9750194 0.01863245 0 0 Z M-29.49862671 29.14717102 C-30.55050171 29.91029602 -31.60237671 30.67342102 -32.68612671 31.45967102 C-40.12874043 38.57150191 -44.93880004 48.13044085 -49.93612671 57.02217102 C-50.62845675 58.24488965 -51.3213399 59.46729523 -52.01473999 60.68940735 C-53.45443401 63.2279681 -54.89176332 65.76784431 -56.32723999 68.30879211 C-61.76012385 77.92006699 -67.25045634 87.49876658 -72.74325562 97.07588196 C-74.33264182 99.85675518 -75.90791172 102.6450528 -77.47909546 105.43623352 C-84.71643519 118.19754021 -91.67675723 126.69917098 -106.16976929 131.31684875 C-110.15183183 132.39951658 -114.16583794 133.34349244 -118.18612671 134.27217102 C-130.29789845 136.97431911 -130.29789845 136.97431911 -141.49862671 142.14717102 C-141.99362671 143.13717102 -141.99362671 143.13717102 -142.49862671 144.14717102 C-141.93877075 144.16175354 -141.37891479 144.17633606 -140.80209351 144.19136047 C-138.26274534 144.26588454 -135.72470593 144.36252683 -133.18612671 144.45967102 C-131.86451538 144.49350891 -131.86451538 144.49350891 -130.51620483 144.5280304 C-129.66864624 144.56347961 -128.82108765 144.59892883 -127.94784546 144.63545227 C-126.77741699 144.67472839 -126.77741699 144.67472839 -125.58334351 144.71479797 C-122.97406849 145.2559651 -122.0673264 146.01252472 -120.49862671 148.14717102 C-119.59230071 156.01308292 -121.74920096 163.35993268 -123.75180054 170.90596008 C-124.3144166 173.03461834 -124.85375509 175.16828642 -125.39120483 177.30342102 C-125.74465568 178.66575554 -126.09942627 180.0277485 -126.45565796 181.38935852 C-126.77510376 182.61509583 -127.09454956 183.84083313 -127.42367554 185.10371399 C-128.96043705 189.45467219 -128.96043705 189.45467219 -131.49862671 191.14717102 C-133.67514038 191.57954407 -133.67514038 191.57954407 -136.16659546 191.65888977 C-137.05927124 191.69433899 -137.95194702 191.72978821 -138.87167358 191.76631165 C-139.80044312 191.78887024 -140.72921265 191.81142883 -141.68612671 191.83467102 C-142.6264978 191.86883118 -143.5668689 191.90299133 -144.53573608 191.93818665 C-146.85658064 192.0206532 -149.17704819 192.08980505 -151.49862671 192.14717102 C-151.55735599 195.95960482 -151.59246587 199.77192008 -151.62362671 203.58467102 C-151.64038452 204.65394836 -151.65714233 205.72322571 -151.67440796 206.8249054 C-151.73393309 216.55726359 -151.07229943 225.5056936 -144.49862671 233.14717102 C-135.96675611 240.48681516 -125.67797678 240.44051828 -114.93612671 240.27217102 C-113.83204468 240.26314758 -112.72796265 240.25412415 -111.59042358 240.24482727 C-108.89292501 240.2214723 -106.19589594 240.18872156 -103.49862671 240.14717102 C-103.45995483 238.31605774 -103.45995483 238.31605774 -103.42050171 236.44795227 C-102.90766231 219.55694983 -99.66906071 204.52975934 -87.68612671 191.77217102 C-75.51385261 180.44584648 -60.45213003 175.5995442 -44.08065796 175.90107727 C-28.21976639 176.99075684 -15.21161174 183.43723628 -4.49862671 195.14717102 C6.54489084 209.53658701 7.53561336 221.79773235 8.50137329 240.14717102 C61.30137329 240.14717102 114.10137329 240.14717102 168.50137329 240.14717102 C168.83137329 233.87717102 169.16137329 227.60717102 169.50137329 221.14717102 C173.04231827 206.03005975 180.03740794 193.23678258 193.43887329 184.89717102 C208.74590445 176.29719016 224.03333189 173.56077541 241.34512329 178.11982727 C256.18948394 182.95159317 267.26134927 192.29840573 274.50137329 206.14717102 C278.38332058 214.48089272 279.64925165 221.84479195 280.06387329 230.95967102 C280.10705688 231.84332336 280.15024048 232.72697571 280.19473267 233.6374054 C280.30028865 235.80716725 280.40128401 237.97715013 280.50137329 240.14717102 C284.3138071 240.2059003 288.12612235 240.24101018 291.93887329 240.27217102 C293.54278931 240.29730774 293.54278931 240.29730774 295.17910767 240.32295227 C304.20055162 240.3781293 312.28915514 240.07721706 319.50137329 234.14717102 C325.70379474 227.90012783 328.26480987 222.15740802 328.61489868 213.26289368 C328.60704346 211.8018219 328.60704346 211.8018219 328.59902954 210.31123352 C328.59419556 208.71601868 328.59419556 208.71601868 328.58926392 207.08857727 C328.58088501 205.99416321 328.5725061 204.89974915 328.56387329 203.77217102 C328.55710571 202.09574524 328.55710571 202.09574524 328.55020142 200.38545227 C328.53846574 197.63930298 328.52204692 194.89326516 328.50137329 192.14717102 C327.40180298 192.12138977 326.30223267 192.09560852 325.16934204 192.06904602 C312.04999681 191.62598563 301.21789318 189.75369257 291.50137329 180.14717102 C283.66889736 170.94324989 281.18772127 162.92223555 281.10293579 150.96748352 C281.55724717 147.75167161 282.00091522 147.09594908 284.50137329 145.14717102 C286.49429321 144.71479797 286.49429321 144.71479797 288.73184204 144.63545227 C289.53428345 144.60000305 290.33672485 144.56455383 291.16348267 144.5280304 C291.99686157 144.5054718 292.83024048 144.48291321 293.68887329 144.45967102 C294.53385376 144.42551086 295.37883423 144.39135071 296.24942017 144.3561554 C298.33293978 144.27375631 300.41713545 144.20878458 302.50137329 144.14717102 C292.95369021 136.49094446 281.15240139 134.87464653 269.43887329 133.08467102 C238.79530324 128.33970937 238.79530324 128.33970937 229.70059204 116.74092102 C225.70594648 111.24240152 222.44737291 105.31601828 219.12637329 99.39717102 C218.42954032 98.16530733 217.73209964 96.93378722 217.03408813 95.70259094 C215.58327298 93.14233983 214.13507151 90.58063824 212.68887329 88.01777649 C207.25387927 78.39250129 201.75550657 68.80300484 196.25674438 59.21406555 C194.67139534 56.44422484 193.0954017 53.66928085 191.52090454 50.89326477 C182.6115111 35.29283511 171.54525504 22.86105014 153.50137329 17.89717102 C144.50254375 16.06901836 135.4368939 15.99843773 126.2875061 16.00190735 C125.00155548 15.99854874 123.71560486 15.99519012 122.39068604 15.99172974 C118.89044498 15.98296345 115.39022843 15.98055475 111.88997746 15.97991395 C109.69509952 15.97919921 107.50022767 15.97705692 105.30535126 15.97441673 C97.62524526 15.96518748 89.94515652 15.96107878 82.26504517 15.96186829 C75.14303256 15.96246832 68.02109587 15.95192478 60.89910245 15.93612462 C54.75350635 15.92298385 48.60793487 15.91768712 42.46232486 15.9183237 C38.80558769 15.91857678 35.1489181 15.91583164 31.49219513 15.90514565 C27.40568477 15.89352773 23.31934113 15.8982512 19.2328186 15.9042511 C18.04586395 15.89863159 16.8589093 15.89301208 15.63598633 15.88722229 C-1.52535785 15.95079526 -15.77797886 18.52942586 -29.49862671 29.14717102 Z M-151.49862671 161.14717102 C-151.57176237 163.67766504 -151.59110198 166.18021939 -151.56112671 168.70967102 C-151.55661499 169.42058899 -151.55210327 170.13150696 -151.54745483 170.8639679 C-151.53563535 172.62507115 -151.51769934 174.38613138 -151.49862671 176.14717102 C-148.52862671 176.14717102 -145.55862671 176.14717102 -142.49862671 176.14717102 C-140.59050486 170.75465275 -139.10338774 165.83192468 -138.49862671 160.14717102 C-140.47772068 160.12030549 -142.45691642 160.10083727 -144.43612671 160.08467102 C-146.08934937 160.06726868 -146.08934937 160.06726868 -147.77597046 160.04951477 C-150.41310305 159.83454531 -150.41310305 159.83454531 -151.49862671 161.14717102 Z M298.50137329 160.14717102 C302.29587525 167.73617494 306.42534447 172.44615804 314.50137329 175.14717102 C318.16531938 175.72721526 321.79599019 176.0109437 325.50137329 176.14717102 C325.02031204 170.05372845 322.30804241 165.47264576 319.50137329 160.14717102 C312.57137329 160.14717102 305.64137329 160.14717102 298.50137329 160.14717102 Z M-76.24862671 204.27217102 C-84.80985022 213.34057601 -86.99463927 224.07218201 -86.77597046 236.02607727 C-86.26794916 247.0483703 -80.5969858 255.38371256 -72.87362671 262.83467102 C-63.42465716 270.59314696 -53.31866124 272.37298632 -41.45516968 271.38642883 C-30.73339003 270.07530529 -22.49791767 263.98165329 -15.68612671 255.89717102 C-8.49835062 245.93457905 -6.94126952 235.14114581 -8.49862671 223.14717102 C-11.13093502 212.11172464 -18.14470308 203.59619118 -27.68612671 197.64717102 C-44.26217881 188.60800282 -62.28925653 191.80301683 -76.24862671 204.27217102 Z M195.75137329 204.27217102 C187.19014978 213.34057601 185.00536073 224.07218201 185.22402954 236.02607727 C185.73205084 247.0483703 191.4030142 255.38371256 199.12637329 262.83467102 C208.57534284 270.59314696 218.68133876 272.37298632 230.54483032 271.38642883 C241.26660997 270.07530529 249.50208233 263.98165329 256.31387329 255.89717102 C263.50164938 245.93457905 265.05873048 235.14114581 263.50137329 223.14717102 C260.86906498 212.11172464 253.85529692 203.59619118 244.31387329 197.64717102 C227.73782119 188.60800282 209.71074347 191.80301683 195.75137329 204.27217102 Z " fill="#000000" transform="translate(167.49862670898438,111.85282897949219)"/>
<path d="M0 0 C0.97147224 -0.0098568 0.97147224 -0.0098568 1.96257019 -0.01991272 C4.09679289 -0.0395575 6.23094572 -0.05128498 8.36523438 -0.0612793 C9.46101555 -0.06739259 9.46101555 -0.06739259 10.57893372 -0.07362938 C14.4414542 -0.09444685 18.30393955 -0.10877034 22.16650391 -0.11816406 C26.15477337 -0.12925361 30.14248877 -0.16369425 34.13056183 -0.20333576 C37.20006351 -0.22946418 40.26943192 -0.2378522 43.33903503 -0.24144554 C44.80946113 -0.24631691 46.27988105 -0.2579467 47.75019836 -0.27648354 C49.80657255 -0.30080948 51.86149502 -0.29992391 53.91796875 -0.29296875 C55.08726929 -0.29883499 56.25656982 -0.30470123 57.46130371 -0.31074524 C60.45898438 0.17700195 60.45898438 0.17700195 62.83544922 1.67707825 C65.14504941 5.2334067 65.01798709 8.54162572 64.9765625 12.64575195 C64.98357178 13.4982251 64.99058105 14.35069824 64.99780273 15.22900391 C65.01540006 18.04533515 65.00375397 20.86066059 64.99023438 23.67700195 C64.99292879 25.63468621 64.99681079 27.59236916 65.00183105 29.55004883 C65.00772845 33.65239202 64.99915531 37.75438677 64.98046875 41.85668945 C64.95767913 47.11620824 64.97080091 52.37491059 64.99475861 57.63439941 C65.00921001 61.67673906 65.0046136 65.71888501 64.99424744 69.76123047 C64.99157833 71.70052181 64.99485635 73.63983072 65.00416565 75.57910156 C65.01432039 78.28929246 64.99884565 80.9981597 64.9765625 83.70825195 C64.98465942 84.51045166 64.99275635 85.31265137 65.00109863 86.13916016 C64.94965038 89.51526824 64.85475169 91.66346217 62.75933075 94.38243866 C59.9743339 96.55509108 58.6432466 96.67929507 55.14550781 96.68493652 C54.06877808 96.69621582 52.99204834 96.70749512 51.88269043 96.71911621 C50.11834656 96.70697083 50.11834656 96.70697083 48.31835938 96.69458008 C46.45443542 96.70509399 46.45443542 96.70509399 44.55285645 96.71582031 C41.14763252 96.73041068 37.74338055 96.72698943 34.33821106 96.71430397 C30.7739634 96.70417311 27.20975712 96.71356987 23.64550781 96.71984863 C17.66008044 96.72712483 11.67485052 96.71753823 5.68945312 96.69848633 C-1.2294052 96.67671742 -8.14779205 96.68376882 -15.06663895 96.70579195 C-21.00817525 96.7239469 -26.94956965 96.72650388 -32.89112473 96.71603727 C-36.43925454 96.70980278 -39.98716277 96.70896524 -43.53527832 96.72218323 C-47.49050203 96.73588874 -51.44519811 96.7168903 -55.40039062 96.69458008 C-56.57661987 96.702677 -57.75284912 96.71077393 -58.96472168 96.71911621 C-60.57981628 96.70219727 -60.57981628 96.70219727 -62.22753906 96.68493652 C-63.16257263 96.68342842 -64.0976062 96.68192032 -65.06097412 96.68036652 C-68.32243568 96.0184001 -69.50909916 94.76600453 -71.54101562 92.17700195 C-73.26717398 83.91408001 -68.27436149 77.68258326 -64.10351562 70.92700195 C-63.33311989 69.65114175 -62.56426422 68.37435047 -61.796875 67.09667969 C-60.19964628 64.44452644 -58.59196597 61.79916039 -56.97509766 59.15893555 C-54.61112045 55.29801242 -52.27473262 51.42095363 -49.94335938 47.5402832 C-46.43368812 41.70538764 -42.89072149 35.89196595 -39.32666016 30.09008789 C-37.79199113 27.58644134 -36.27180204 25.07481058 -34.75585938 22.55981445 C-28.29934695 11.982039 -20.905554 4.45124722 -8.80627441 0.62898254 C-5.84406161 0.03794072 -3.02123891 0.02543547 0 0 Z M-15.14257812 24.86450195 C-20.1624077 30.81258753 -23.82750316 37.7832541 -27.72851562 44.48950195 C-28.99486402 46.64942682 -30.26363294 48.80791624 -31.53266907 50.96626282 C-32.36797757 52.38710873 -33.20252828 53.80840044 -34.03630066 55.23014832 C-37.80196342 61.64499541 -41.66886036 67.99480657 -45.59448242 74.31298828 C-47.62959814 77.05918167 -47.62959814 77.05918167 -48.54101562 80.17700195 C-16.53101563 80.17700195 15.47898437 80.17700195 48.45898438 80.17700195 C48.45898438 59.05700195 48.45898438 37.93700195 48.45898438 16.17700195 C37.35242188 16.11512695 37.35242188 16.11512695 26.02148438 16.05200195 C23.70189697 16.03379395 21.38230957 16.01558594 18.99243164 15.99682617 C17.12842031 15.99097817 15.26440641 15.98588334 13.40039062 15.98168945 C11.97962219 15.96634155 11.97962219 15.96634155 10.53015137 15.95068359 C0.20426187 15.94800815 -7.69975695 17.17582182 -15.14257812 24.86450195 Z " fill="#000000" transform="translate(167.541015625,135.822998046875)"/>
<path d="M0 0 C1.30558365 -0.01260864 2.6111673 -0.02521729 3.95631409 -0.03820801 C5.38095639 -0.03104295 6.80559378 -0.02283766 8.23022461 -0.01367188 C9.7003149 -0.01636916 11.17040346 -0.02025355 12.64048767 -0.02526855 C15.72485301 -0.03116555 18.808755 -0.02260353 21.89306641 -0.00390625 C25.81800105 0.01874383 29.74183305 0.00585195 33.66672611 -0.01819611 C36.70655861 -0.03276971 39.74613744 -0.02799343 42.78597832 -0.01768494 C44.23104423 -0.01504205 45.67613422 -0.0182002 47.12117195 -0.02760315 C60.30809478 -0.09451405 70.82647064 2.16150986 80.57006836 11.51757812 C85.97287418 17.47591438 91.73445411 24.68958471 93.13256836 32.76757812 C92.36953037 36.49798607 91.52202761 38.06961192 88.57006836 40.51757812 C85.4015019 41.30380823 82.73944172 41.30422115 79.57006836 40.51757812 C77.28550172 38.44552931 76.13046517 37.06622625 74.57006836 34.51757812 C68.06993066 24.23827399 68.06993066 24.23827399 57.57006836 18.51757812 C52.03460247 17.34613421 46.55520688 17.29760331 40.92163086 17.20117188 C39.57427856 17.17319519 39.57427856 17.17319519 38.19970703 17.14465332 C34.8649214 17.0766855 31.52998417 17.01632701 28.19506836 16.95507812 C20.72881836 16.81070313 13.26256836 16.66632813 5.57006836 16.51757812 C5.57006836 37.63757813 5.57006836 58.75757813 5.57006836 80.51757812 C53.09006836 80.02257812 53.09006836 80.02257812 101.57006836 79.51757812 C97.94006836 73.57757813 94.31006836 67.63757813 90.57006836 61.51757812 C89.57006836 54.51757812 89.57006836 54.51757812 90.88256836 51.64257812 C93.32634193 48.56523363 94.32146493 48.55072525 98.32006836 48.01757812 C102.03095801 48.10983324 102.42649333 48.37834758 105.28100586 51.14648438 C109.4866439 56.39555664 112.87994133 62.2115991 116.28588867 67.99633789 C117.4466416 69.95773653 118.63271006 71.90227939 119.82006836 73.84765625 C120.56906794 75.11037822 121.31651837 76.37402064 122.06225586 77.63867188 C122.73627441 78.76716553 123.41029297 79.89565918 124.10473633 81.05834961 C125.95577135 85.42811222 126.14829427 87.81024157 125.57006836 92.51757812 C123.55496525 95.13792777 122.36237125 96.35676743 119.09002686 97.02094269 C118.15499329 97.02245079 117.21995972 97.02395889 116.2565918 97.0255127 C115.17986206 97.03679199 114.10313232 97.04807129 112.99377441 97.05969238 C111.22943054 97.047547 111.22943054 97.047547 109.42944336 97.03515625 C107.56551941 97.04567017 107.56551941 97.04567017 105.66394043 97.05639648 C102.2587165 97.07098685 98.85446454 97.0675656 95.44929504 97.05488014 C91.88504738 97.04474929 88.3208411 97.05414604 84.7565918 97.0604248 C78.77116442 97.067701 72.7859345 97.0581144 66.80053711 97.0390625 C59.88167878 97.01729359 52.96329194 97.024345 46.04444504 97.04636812 C40.10290874 97.06452307 34.16151433 97.06708005 28.21995926 97.05661345 C24.67182945 97.05037895 21.12392122 97.04954141 17.57580566 97.0627594 C13.62058195 97.07646491 9.66588588 97.05746647 5.71069336 97.03515625 C4.53446411 97.04325317 3.35823486 97.0513501 2.1463623 97.05969238 C0.5312677 97.04277344 0.5312677 97.04277344 -1.11645508 97.0255127 C-2.05148865 97.02400459 -2.98652222 97.02249649 -3.94989014 97.02094269 C-7.22147279 96.35692204 -8.41277122 95.13500533 -10.42993164 92.51757812 C-10.82448951 89.56972543 -10.97725479 86.9958053 -10.94750977 84.04882812 C-10.95451904 83.19635498 -10.96152832 82.34388184 -10.96875 81.46557617 C-10.98634732 78.64924493 -10.97470124 75.83391949 -10.96118164 73.01757812 C-10.96387606 71.05989387 -10.96775806 69.10221092 -10.97277832 67.14453125 C-10.97867572 63.04218806 -10.97010257 58.94019331 -10.95141602 54.83789062 C-10.9286264 49.57837184 -10.94174817 44.31966949 -10.96570587 39.06018066 C-10.98015727 35.01784102 -10.97556087 30.97569507 -10.9651947 26.93334961 C-10.9625256 24.99405826 -10.96580362 23.05474935 -10.97511292 21.11547852 C-10.98526766 18.40528762 -10.96979292 15.69642038 -10.94750977 12.98632812 C-10.95560669 12.18412842 -10.96370361 11.38192871 -10.9720459 10.55541992 C-10.91998231 7.13893314 -10.68654226 4.91055703 -8.79945374 2.02062988 C-5.69910513 0.05399517 -3.66477264 0.01015747 0 0 Z " fill="#000000" transform="translate(258.429931640625,135.482421875)"/>
<path d="M0 0 C5.82485779 3.51996782 10.54466582 8.98962934 12.5625 15.5 C13.36764105 23.33608208 13.68710392 31.11922577 8.5625 37.5 C3.75801361 42.54521222 -0.59927055 46.10562995 -7.70703125 46.8359375 C-16.22326573 46.92983204 -22.11345494 46.6177288 -28.40234375 40.62890625 C-34.7841668 33.72505269 -35.91792252 28.29832071 -35.7421875 18.9453125 C-35.04689797 11.08319245 -31.38995981 6.95041296 -25.53515625 1.9453125 C-18.47077988 -2.92213491 -7.84396301 -3.47595223 0 0 Z M-16.8125 17.125 C-18.92456506 20.21186432 -19.04945145 21.8282913 -18.4375 25.5 C-16.9375 28 -16.9375 28 -14.4375 29.5 C-10.7657913 30.11195145 -9.14936432 29.98706506 -6.0625 27.875 C-3.95043494 24.78813568 -3.82554855 23.1717087 -4.4375 19.5 C-5.9375 17 -5.9375 17 -8.4375 15.5 C-12.1092087 14.88804855 -13.72563568 15.01293494 -16.8125 17.125 Z " fill="#000000" transform="translate(403.4375,321.5)"/>
<path d="M0 0 C5.82485779 3.51996782 10.54466582 8.98962934 12.5625 15.5 C13.36764105 23.33608208 13.68710392 31.11922577 8.5625 37.5 C3.75801361 42.54521222 -0.59927055 46.10562995 -7.70703125 46.8359375 C-16.22326573 46.92983204 -22.11345494 46.6177288 -28.40234375 40.62890625 C-34.7841668 33.72505269 -35.91792252 28.29832071 -35.7421875 18.9453125 C-35.04689797 11.08319245 -31.38995981 6.95041296 -25.53515625 1.9453125 C-18.47077988 -2.92213491 -7.84396301 -3.47595223 0 0 Z M-16.8125 17.125 C-18.92456506 20.21186432 -19.04945145 21.8282913 -18.4375 25.5 C-16.9375 28 -16.9375 28 -14.4375 29.5 C-10.7657913 30.11195145 -9.14936432 29.98706506 -6.0625 27.875 C-3.95043494 24.78813568 -3.82554855 23.1717087 -4.4375 19.5 C-5.9375 17 -5.9375 17 -8.4375 15.5 C-12.1092087 14.88804855 -13.72563568 15.01293494 -16.8125 17.125 Z " fill="#000000" transform="translate(131.4375,321.5)"/>
<path d="M0 0 C1.051875 -0.00515625 2.10375 -0.0103125 3.1875 -0.015625 C4.280625 -0.00015625 5.37375 0.0153125 6.5 0.03125 C8.1396875 0.00804687 8.1396875 0.00804687 9.8125 -0.015625 C10.864375 -0.01046875 11.91625 -0.0053125 13 0 C14.43859375 0.00676758 14.43859375 0.00676758 15.90625 0.01367188 C19.21298564 0.673525 20.40908706 1.94238555 22.5 4.53125 C23.03125 6.53125 23.03125 6.53125 23 8.53125 C23.0103125 9.19125 23.020625 9.85125 23.03125 10.53125 C22.2561666 13.44921104 20.80895833 14.6243588 18.5 16.53125 C15.90625 17.04882812 15.90625 17.04882812 13 17.0625 C11.948125 17.06765625 10.89625 17.0728125 9.8125 17.078125 C8.719375 17.06265625 7.62625 17.0471875 6.5 17.03125 C4.8603125 17.05445313 4.8603125 17.05445313 3.1875 17.078125 C2.135625 17.07296875 1.08375 17.0678125 0 17.0625 C-0.9590625 17.05798828 -1.918125 17.05347656 -2.90625 17.04882812 C-6.21298564 16.388975 -7.40908706 15.12011445 -9.5 12.53125 C-10.03125 10.53125 -10.03125 10.53125 -10 8.53125 C-10.01546875 7.54125 -10.01546875 7.54125 -10.03125 6.53125 C-8.65240655 1.34030994 -4.94094259 0.02324368 0 0 Z " fill="#000000" transform="translate(257.5,239.46875)"/>
<path d="M0 0 C1.051875 -0.00515625 2.10375 -0.0103125 3.1875 -0.015625 C4.280625 -0.00015625 5.37375 0.0153125 6.5 0.03125 C8.1396875 0.00804687 8.1396875 0.00804687 9.8125 -0.015625 C10.864375 -0.01046875 11.91625 -0.0053125 13 0 C14.43859375 0.00676758 14.43859375 0.00676758 15.90625 0.01367188 C19.21298564 0.673525 20.40908706 1.94238555 22.5 4.53125 C23.03125 6.53125 23.03125 6.53125 23 8.53125 C23.0103125 9.19125 23.020625 9.85125 23.03125 10.53125 C22.2561666 13.44921104 20.80895833 14.6243588 18.5 16.53125 C15.90625 17.04882812 15.90625 17.04882812 13 17.0625 C11.948125 17.06765625 10.89625 17.0728125 9.8125 17.078125 C8.719375 17.06265625 7.62625 17.0471875 6.5 17.03125 C4.8603125 17.05445313 4.8603125 17.05445313 3.1875 17.078125 C2.135625 17.07296875 1.08375 17.0678125 0 17.0625 C-0.9590625 17.05798828 -1.918125 17.05347656 -2.90625 17.04882812 C-6.21298564 16.388975 -7.40908706 15.12011445 -9.5 12.53125 C-10.03125 10.53125 -10.03125 10.53125 -10 8.53125 C-10.01546875 7.54125 -10.01546875 7.54125 -10.03125 6.53125 C-8.65240655 1.34030994 -4.94094259 0.02324368 0 0 Z " fill="#000000" transform="translate(105.5,239.46875)"/>
</svg>
